<svg width="1000" height="1000" viewBox="0 0 1000 1000" xmlns="http://www.w3.org/2000/svg"><defs/><path fill="#fea116" transform="matrix(0.625560674346469 0 0 0.625560674346469 23.38461397315399 25.30913419031598)" d="M 497.35270106088 665.67811597551 C 497.29870106088 665.68011597551 497.24770106088 665.69811597551 497.20270106088 665.72611597551 C 497.05770106088 665.81711597551 497.01470106088 666.00911597551 497.10770106088 666.15411597551 C 498.15670106088 667.80511597551 499.09870106088 669.48711597551 499.93670106088 671.20111597551 C 500.38570106088 672.11111597551 501.10670106088 672.79611597551 502.00870106088 673.25111597551 C 525.31670106088 685.09311597551 546.16070106088 702.13211597551 561.35970106088 723.23011597551 C 585.52570106088 756.74611597551 596.31370106088 797.97311597551 591.97370106088 838.93411597551 C 589.95870106088 857.91611597551 584.12370106088 876.58611597551 575.39570106088 893.43811597551 C 575.15970106088 893.90211597551 574.95370106088 894.37111597551 574.77470106088 894.84711597551 C 574.68170106088 895.10411597551 574.80170106088 895.38811597551 575.04970106088 895.49611597551 L 578.68070106088 897.10511597551 C 578.99370106088 897.24411597551 579.36070106088 897.11311597551 579.51870106088 896.80911597551 C 590.04470106088 876.28611597551 596.07170106088 854.91111597551 597.59770106088 832.68711597551 C 599.80770106088 800.49911597551 592.81070106088 767.69011597551 577.02770106088 738.96811597551 C 559.06370106088 706.27011597551 532.62070106088 681.86111597551 497.69970106088 665.74111597551 C 497.58970106088 665.69511597551 497.47270106088 665.67311597551 497.35270106088 665.67811597551 Z"/><path fill="#fea116" transform="matrix(0.625560674346469 0 0 0.625560674346469 23.38461397315399 25.30913419031598)" d="M 563.99470106088 889.33911597551 C 563.99270106088 889.34311597551 563.98970106088 889.35011597551 563.98670106088 889.35511597551 C 563.87070106088 889.60411597551 563.97770106088 889.90011597551 564.22670106088 890.01811597551 L 570.78970106088 893.11511597551 C 571.07370106088 893.25111597551 571.28770106088 893.18011597551 571.43370106088 892.90611597551 C 594.87070106088 848.40811597551 594.92770106088 795.73611597551 572.67470106088 751.12911597551 C 557.93770106088 721.56911597551 534.26370106088 696.93511597551 504.76170106088 681.73611597551 C 504.27070106088 681.48111597551 504.12570106088 681.61311597551 504.32770106088 682.13211597551 C 505.36170106088 684.80911597551 506.02170106088 687.63111597551 506.30570106088 690.59511597551 C 506.40270106088 691.60111597551 506.89170106088 692.36411597551 507.77170106088 692.88311597551 C 565.45570106088 726.99111597551 593.25870106088 796.70211597551 575.07170106088 861.05011597551 C 572.29970106088 870.86011597551 568.60570106088 880.28911597551 563.99470106088 889.33911597551 Z"/><path fill="#fea116" transform="matrix(0.625560674346469 0 0 0.625560674346469 23.38461397315399 25.30913419031598)" d="M 351.75670106088 708.49311597551 C 352.93170106088 707.11711597551 354.12570106088 706.03211597551 355.33870106088 705.23711597551 C 362.93470106088 700.24811597551 373.59770106088 702.56611597551 382.22670106088 703.90811597551 C 386.79870106088 704.61611597551 390.30070106088 703.40611597551 392.73070106088 700.27711597551 C 393.70970106088 699.02111597551 394.14170106088 697.67811597551 394.03170106088 696.24911597551 C 393.62770106088 691.09411597551 387.26570106088 689.44811597551 382.95570106088 689.92411597551 C 375.90370106088 690.71311597551 369.44870106088 692.22011597551 363.59070106088 694.44411597551 C 358.36870106088 696.43211597551 354.61370106088 700.05811597551 352.32770106088 705.32411597551 C 351.87870106088 706.34911597551 351.56870106088 707.35111597551 351.39670106088 708.32811597551 C 351.30870106088 708.82311597551 351.42970106088 708.87911597551 351.75670106088 708.49311597551 Z"/><path fill="#fea116" transform="matrix(0.625560674346469 0 0 0.625560674346469 23.38461397315399 25.30913419031598)" d="M 221.80670106088 898.17711597551 C 222.00870106088 898.54711597551 222.30770106088 898.65611597551 222.70270106088 898.50811597551 L 226.39970106088 897.09311597551 C 226.79870106088 896.94411597551 226.89970106088 896.68211597551 226.70270106088 896.30611597551 C 212.86870106088 869.89411597551 206.49070106088 841.96211597551 207.56870106088 812.50811597551 C 208.04570106088 799.44911597551 210.27370106088 786.14711597551 214.25470106088 772.60211597551 C 222.52970106088 744.41411597551 237.41570106088 720.12211597551 258.91270106088 699.72911597551 C 260.90070106088 697.84711597551 262.98370106088 696.07311597551 265.16470106088 694.40711597551 C 265.52070106088 694.13711597551 265.58570106088 693.80811597551 265.35970106088 693.41811597551 L 263.50370106088 690.22611597551 C 263.48570106088 690.19611597551 263.46570106088 690.16611597551 263.44170106088 690.13911597551 C 263.23170106088 689.89011597551 262.85770106088 689.85711597551 262.60870106088 690.06911597551 C 228.68770106088 718.57311597551 207.72070106088 758.79811597551 203.27270106088 802.69711597551 C 200.33670106088 831.69711597551 204.83470106088 860.02911597551 216.76770106088 887.69211597551 C 218.38970106088 891.46111597551 220.06970106088 894.95611597551 221.80670106088 898.17711597551 Z"/><path fill="#fea116" transform="matrix(0.625560674346469 0 0 0.625560674346469 23.38461397315399 25.30913419031598)" d="M 276.37070106088 703.40311597551 C 276.39970106088 703.37811597551 276.42470106088 703.35011597551 276.44370106088 703.31611597551 C 276.52370106088 703.17411597551 276.47370106088 702.99711597551 276.33470106088 702.92011597551 C 274.02770106088 701.63511597551 271.83670106088 700.12611597551 269.75570106088 698.39411597551 C 269.62270106088 698.28211597551 269.42870106088 698.28211597551 269.29470106088 698.39411597551 C 230.99870106088 729.89611597551 209.25870106088 776.92811597551 211.40270106088 826.39411597551 C 212.38470106088 849.08411597551 218.19070106088 871.02011597551 228.81870106088 892.19911597551 C 229.32870106088 893.22011597551 229.87970106088 894.20211597551 230.47270106088 895.14511597551 C 230.62270106088 895.38611597551 230.92970106088 895.48211597551 231.19470106088 895.36911597551 L 237.88770106088 892.52511597551 C 238.29170106088 892.35111597551 238.39070106088 892.07311597551 238.18370106088 891.69411597551 C 203.26470106088 827.42411597551 219.20770106088 748.91211597551 276.37070106088 703.40311597551 Z"/><path fill="#fea116" transform="matrix(0.625560674346469 0 0 0.625560674346469 23.38461397315399 25.30913419031598)" d="M 390.29870106088 715.09211597551 C 388.66170106088 714.45711597551 387.23070106088 713.57411597551 386.00370106088 712.44311597551 C 383.90870106088 710.52311597551 381.66370106088 708.97111597551 378.88370106088 708.28511597551 C 374.28170106088 707.14911597551 370.00070106088 707.58211597551 366.03870106088 709.58411597551 C 362.96270106088 711.13611597551 361.43170106088 713.55511597551 359.64170106088 716.21911597551 C 359.13570106088 716.97411597551 359.18370106088 717.01111597551 359.78570106088 716.32711597551 C 361.77270106088 714.08911597551 364.11770106088 711.60511597551 366.89070106088 710.38611597551 C 369.12370106088 709.39311597551 371.51670106088 708.81411597551 374.06770106088 708.64611597551 C 374.12070106088 708.64111597551 374.14970106088 708.66411597551 374.15370106088 708.71811597551 L 374.15370106088 708.72411597551 C 374.17370106088 708.83111597551 374.13070106088 708.89311597551 374.02470106088 708.91211597551 C 372.14270106088 709.28711597551 370.61370106088 709.92811597551 369.43970106088 710.83311597551 C 367.79970106088 712.09611597551 365.95170106088 713.12111597551 364.42770106088 714.53011597551 C 363.17670106088 715.68011597551 361.68670106088 716.71811597551 359.95870106088 717.64111597551 C 359.78570106088 717.73811597551 359.60270106088 717.75211597551 359.41070106088 717.68511597551 C 359.31470106088 717.65111597551 359.21270106088 717.64611597551 359.10670106088 717.66911597551 C 358.82170106088 717.73211597551 358.78970106088 717.85911597551 359.00570106088 718.05211597551 C 360.59870106088 719.48611597551 362.10570106088 720.57511597551 363.52570106088 721.31611597551 C 370.83670106088 725.14811597551 378.07370106088 724.89711597551 385.23670106088 720.56511597551 C 386.35870106088 719.88711597551 387.33570106088 718.98411597551 388.16770106088 717.85711597551 C 388.71670106088 717.11111597551 388.60370106088 716.99111597551 387.82870106088 717.49711597551 C 379.35670106088 723.01211597551 370.51870106088 723.48211597551 361.31570106088 718.90511597551 C 360.49270106088 718.49511597551 360.52870106088 718.19811597551 361.42370106088 718.01011597551 C 363.61870106088 717.54711597551 365.17770106088 715.44711597551 366.84570106088 714.10311597551 C 366.93670106088 714.03311597551 367.04970106088 713.99811597551 367.16370106088 714.00311597551 C 367.43170106088 714.01511597551 367.63770106088 714.24111597551 367.62570106088 714.50711597551 C 367.56670106088 715.52711597551 367.17470106088 716.45711597551 366.44770106088 717.29511597551 C 366.40770106088 717.33911597551 366.38470106088 717.39611597551 366.38270106088 717.45611597551 C 366.37470106088 717.60011597551 366.48570106088 717.72111597551 366.62970106088 717.72811597551 C 371.87070106088 718.03911597551 376.68070106088 717.96611597551 382.03770106088 717.23611597551 C 383.93870106088 716.98211597551 385.82070106088 716.82511597551 387.68370106088 716.76811597551 C 388.60070106088 716.73811597551 389.48970106088 716.39911597551 390.32670106088 716.02311597551 C 391.05870106088 715.69611597551 391.04970106088 715.38611597551 390.29870106088 715.09211597551 Z M 381.78170106088 713.47211597551 C 381.60570106088 713.86111597551 380.94470106088 713.94211597551 380.30470106088 713.65211597551 L 380.30470106088 713.65211597551 C 379.66570106088 713.36411597551 379.28970106088 712.81511597551 379.46470106088 712.42411597551 C 379.64070106088 712.03511597551 380.30070106088 711.95411597551 380.93970106088 712.24411597551 C 380.94070106088 712.24411597551 380.94070106088 712.24411597551 380.94070106088 712.24411597551 C 381.58070106088 712.53311597551 381.95670106088 713.08211597551 381.78170106088 713.47211597551 Z"/><path fill="#fea116" transform="matrix(0.625560674346469 0 0 0.625560674346469 23.38461397315399 25.30913419031598)" d="M 429.92370106088 715.03511597551 C 429.42270106088 714.91011597551 428.96570106088 714.69811597551 428.55070106088 714.40011597551 C 428.35970106088 714.26011597551 428.21470106088 714.29911597551 428.11770106088 714.51611597551 C 428.11470106088 714.52111597551 428.11370106088 714.52711597551 428.11070106088 714.53211597551 C 428.04770106088 714.69611597551 428.13370106088 714.88311597551 428.30470106088 714.94911597551 C 428.76670106088 715.12311597551 429.18870106088 715.38611597551 429.56970106088 715.74311597551 C 429.75270106088 715.91511597551 429.90870106088 715.89411597551 430.03970106088 715.67811597551 L 430.12570106088 715.51911597551 C 430.14270106088 715.49011597551 430.15470106088 715.45911597551 430.16270106088 715.42811597551 C 430.20470106088 715.25311597551 430.09770106088 715.07611597551 429.92370106088 715.03511597551 Z"/><path fill="#fea116" transform="matrix(0.625560674346469 0 0 0.625560674346469 23.38461397315399 25.30913419031598)" d="M 400.29170106088 739.71311597551 C 399.99870106088 741.21111597551 400.25770106088 741.31311597551 401.07070106088 740.01711597551 C 401.51370106088 739.30511597551 401.80670106088 738.49811597551 401.95270106088 737.59911597551 C 402.92970106088 731.46211597551 401.74770106088 725.77811597551 398.40670106088 720.55111597551 C 398.38670106088 720.51711597551 398.36070106088 720.51111597551 398.32770106088 720.52911597551 L 398.13970106088 720.62311597551 C 398.11170106088 720.63811597551 398.10470106088 720.66211597551 398.11870106088 720.69611597551 C 401.30870106088 726.99111597551 401.59870106088 732.97711597551 400.29170106088 739.71311597551 Z"/><path fill="#fea116" transform="matrix(0.625560674346469 0 0 0.625560674346469 23.38461397315399 25.30913419031598)" d="M 429.79270106088 923.96811597551 C 429.79270106088 929.08392961319 425.64551469856 933.23111597551 420.52970106088 933.23111597551 C 415.4138874232 933.23111597551 411.26670106088 929.08392961319 411.26670106088 923.96811597551 C 411.26670106088 918.85230233783 415.4138874232 914.70511597551 420.52970106088 914.70511597551 C 425.64551469856 914.70511597551 429.79270106088 918.85230233783 429.79270106088 923.96811597551 Z"/><path fill="#fea116" transform="matrix(0.625560674346469 0 0 0.625560674346469 23.38461397315399 25.30913419031598)" d="M 360.57270106088 931.72911597551 C 360.57270106088 936.8173153757 356.44790046107 940.94211597551 351.35970106088 940.94211597551 C 346.27150166069 940.94211597551 342.14670106088 936.8173153757 342.14670106088 931.72911597551 C 342.14670106088 926.64091657532 346.27150166069 922.51611597551 351.35970106088 922.51611597551 C 356.44790046107 922.51611597551 360.57270106088 926.64091657532 360.57270106088 931.72911597551 Z"/><path fill="#fea116" transform="matrix(0.625560674346469 0 0 0.625560674346469 23.38461397315399 25.30913419031598)" d="M 590.44370106088 921.59911597551 L 592.94170106088 918.32211597551 C 593.04270106088 918.19111597551 593.02070106088 918.08611597551 592.87670106088 918.00411597551 L 580.84870106088 911.23811597551 C 547.47070106088 892.28311597551 513.59870106088 874.27311597551 479.23170106088 857.20911597551 C 476.48670106088 855.84811597551 473.68970106088 854.54611597551 470.84070106088 853.30411597551 C 470.37870106088 853.10511597551 470.09370106088 852.63111597551 470.13270106088 852.12611597551 C 470.56570106088 846.92311597551 469.26270106088 842.80711597551 466.21970106088 839.77911597551 C 465.67170106088 839.23511597551 465.32270106088 838.60911597551 465.17270106088 837.90211597551 C 464.11870106088 832.79611597551 464.02570106088 828.84511597551 464.89170106088 826.05411597551 C 467.04170106088 819.11611597551 461.14370106088 815.35311597551 455.37370106088 813.77311597551 C 455.12770106088 813.70211597551 454.95770106088 813.47611597551 454.96270106088 813.22311597551 C 455.02070106088 811.07111597551 455.02070106088 806.89811597551 456.13370106088 805.24411597551 C 456.40270106088 804.84111597551 456.65470106088 804.41711597551 456.89170106088 803.97311597551 C 457.95470106088 803.29911597551 459.05170106088 802.17211597551 460.18370106088 800.59411597551 C 464.79470106088 794.13811597551 467.89070106088 787.16911597551 469.46870106088 779.68411597551 C 470.82970106088 777.33411597551 472.16770106088 774.93111597551 473.47570106088 772.47111597551 C 474.40070106088 770.74411597551 475.67770106088 770.10311597551 477.02770106088 768.89011597551 C 482.36470106088 764.10311597551 483.02870106088 758.41211597551 481.62770106088 751.46011597551 C 481.59070106088 751.25211597551 481.63070106088 751.06611597551 481.75070106088 750.89711597551 C 485.62070106088 745.51611597551 486.36170106088 739.77511597551 483.97470106088 733.67711597551 C 482.45170106088 729.79311597551 480.70470106088 726.36311597551 483.44870106088 722.31311597551 C 486.92370106088 717.17211597551 487.96170106088 711.49111597551 486.56070106088 705.27311597551 C 486.49270106088 704.97411597551 486.56470106088 704.71311597551 486.77670106088 704.49311597551 C 490.87070106088 700.08811597551 493.78070106088 696.09511597551 492.82770106088 689.64811597551 C 492.32670106088 686.25911597551 491.38370106088 683.31711597551 489.99770106088 680.82511597551 C 488.14970106088 677.49911597551 486.23970106088 673.83511597551 484.27070106088 669.83511597551 C 483.31070106088 667.87811597551 481.69370106088 666.52811597551 480.02570106088 665.22911597551 C 479.39570106088 664.73711597551 479.03670106088 664.10711597551 478.95070106088 663.33611597551 C 477.15070106088 647.80811597551 475.13970106088 631.38411597551 472.92170106088 614.06511597551 C 472.87870106088 613.74811597551 473.00570106088 613.64611597551 473.30470106088 613.76211597551 C 476.96270106088 615.23511597551 480.88070106088 615.67111597551 485.05870106088 615.06911597551 C 500.07070106088 612.91711597551 508.20670106088 599.31411597551 505.79570106088 584.68611597551 C 504.84670106088 578.92811597551 502.39770106088 574.21411597551 498.44570106088 570.54111597551 C 498.25170106088 570.35811597551 498.22070106088 570.06211597551 498.37270106088 569.84811597551 C 499.01370106088 568.95311597551 499.46570106088 568.00811597551 499.72970106088 567.01111597551 C 502.92870106088 554.96711597551 492.61070106088 544.92411597551 482.53170106088 540.35311597551 C 473.59970106088 536.30311597551 464.38070106088 534.52011597551 454.33670106088 533.19011597551 C 450.06670106088 532.62311597551 445.80070106088 532.23011597551 441.53570106088 532.01411597551 C 441.22770106088 531.99911597551 440.94570106088 531.83511597551 440.78470106088 531.57311597551 C 436.75570106088 525.00311597551 430.93270106088 520.87811597551 423.31770106088 519.19811597551 C 399.99770106088 514.04311597551 375.46970106088 528.35311597551 358.21370106088 543.03911597551 C 352.62570106088 547.79511597551 347.07770106088 552.58011597551 341.57070106088 557.39311597551 C 332.30870106088 565.49411597551 322.08070106088 571.44811597551 310.88470106088 575.25611597551 C 307.65570106088 576.35811597551 304.42570106088 577.47811597551 301.19570106088 578.61311597551 C 287.59970106088 583.40111597551 279.98970106088 594.54011597551 278.12670106088 608.61311597551 C 276.89970106088 617.89411597551 277.25070106088 627.39811597551 279.18070106088 637.12711597551 C 279.28570106088 637.64811597551 279.07370106088 638.18411597551 278.63870106088 638.49111597551 C 270.76770106088 644.01411597551 266.19070106088 651.92011597551 265.98870106088 661.61711597551 C 265.75070106088 672.84411597551 270.31470106088 683.11111597551 279.40370106088 689.45011597551 C 285.46870106088 693.67711597551 292.74670106088 695.30611597551 301.23870106088 694.33811597551 C 304.85870106088 693.92511597551 308.17670106088 692.96011597551 311.19570106088 691.44311597551 C 311.46970106088 691.30411597551 311.64070106088 691.38411597551 311.70870106088 691.68911597551 C 311.83770106088 692.26711597551 311.81370106088 692.84511597551 311.63570106088 693.42111597551 C 308.93570106088 702.02811597551 308.86370106088 711.71811597551 313.62270106088 719.36411597551 C 314.59670106088 720.93011597551 315.81670106088 722.31111597551 317.00070106088 723.71011597551 C 318.32170106088 725.27811597551 318.07670106088 727.56011597551 317.49070106088 729.32011597551 C 316.54270106088 732.15611597551 315.73970106088 734.78311597551 315.08070106088 737.20511597551 C 313.36970106088 743.52211597551 315.02970106088 749.27611597551 318.70470106088 754.47611597551 C 320.50970106088 757.03211597551 321.39070106088 759.73111597551 322.01170106088 762.73611597551 C 323.52370106088 770.12411597551 327.97570106088 773.94611597551 335.36870106088 774.20211597551 C 335.68670106088 774.21111597551 335.87470106088 774.37311597551 335.93170106088 774.68511597551 C 337.27570106088 781.74711597551 339.20270106088 788.23711597551 342.80670106088 794.55411597551 C 342.98370106088 794.86711597551 343.08970106088 795.19111597551 343.12370106088 795.52211597551 C 343.16270106088 795.86411597551 343.19370106088 796.20911597551 343.21770106088 796.55511597551 C 343.89170106088 806.07611597551 344.33970106088 815.34711597551 344.56170106088 824.36711597551 C 344.57470106088 824.88811597551 344.22770106088 825.34811597551 343.72470106088 825.48011597551 C 337.57270106088 827.03911597551 336.42470106088 832.43211597551 335.66570106088 837.87611597551 C 334.96770106088 842.89211597551 334.24170106088 847.84911597551 333.48570106088 852.74311597551 C 333.38970106088 853.37411597551 333.05270106088 853.82711597551 332.47470106088 854.10011597551 C 300.78270106088 869.09511597551 269.67570106088 885.42111597551 239.15370106088 903.08211597551 C 228.68370106088 909.13311597551 218.38770106088 915.77411597551 207.91070106088 922.23011597551 C 207.53170106088 922.46011597551 207.47470106088 922.75411597551 207.74470106088 923.11011597551 L 208.36570106088 923.91911597551 C 212.78870106088 929.20011597551 217.55670106088 934.16411597551 222.66870106088 938.81511597551 L 229.08070106088 945.22611597551 C 229.25870106088 945.40511597551 229.41270106088 945.38811597551 229.54170106088 945.17711597551 C 229.72970106088 944.87211597551 230.00370106088 944.78411597551 230.36570106088 944.90911597551 C 231.82770106088 945.41411597551 233.07770106088 946.18211597551 234.11270106088 947.21111597551 C 234.55070106088 947.64911597551 235.08870106088 947.98511597551 235.72370106088 948.21611597551 C 236.05170106088 948.33611597551 236.38770106088 948.37811597551 236.73470106088 948.33911597551 C 237.83870106088 948.22311597551 238.73470106088 949.03111597551 239.21070106088 949.97711597551 C 239.38970106088 950.33011597551 239.64670106088 950.55211597551 239.98270106088 950.64911597551 C 240.31570106088 950.74111597551 240.35770106088 950.66611597551 240.11270106088 950.42611597551 L 228.64670106088 939.19711597551 L 213.49170106088 923.16811597551 C 212.96270106088 922.79811597551 212.58470106088 922.43711597551 212.35870106088 922.08511597551 C 212.35170106088 922.07611597551 212.34570106088 922.06511597551 212.33970106088 922.05611597551 C 212.21770106088 921.83211597551 212.29970106088 921.55111597551 212.52370106088 921.42811597551 C 218.08370106088 918.33811597551 223.71270106088 915.44411597551 229.41270106088 912.74311597551 C 240.05870106088 907.69311597551 250.23270106088 903.01211597551 259.93270106088 898.69911597551 C 283.37470106088 888.28811597551 306.82570106088 877.86411597551 330.28670106088 867.42811597551 C 330.67670106088 867.25411597551 330.95070106088 867.36511597551 331.10970106088 867.76011597551 C 333.84870106088 874.47411597551 338.80570106088 879.03711597551 345.98270106088 881.44911597551 C 346.02570106088 881.46311597551 346.06370106088 881.48811597551 346.09370106088 881.52111597551 C 346.18270106088 881.62411597551 346.17170106088 881.77911597551 346.07070106088 881.86711597551 C 340.50370106088 886.92911597551 335.70170106088 891.98311597551 331.83170106088 898.65411597551 C 331.80670106088 898.69711597551 331.79270106088 898.74311597551 331.78570106088 898.79111597551 C 331.76470106088 898.98111597551 331.90170106088 899.15211597551 332.09270106088 899.17511597551 C 335.82770106088 899.67011597551 339.49570106088 900.22511597551 343.09570106088 900.83511597551 C 351.31270106088 902.22911597551 357.58670106088 899.29711597551 364.07770106088 894.59811597551 C 364.53670106088 894.26511597551 365.17070106088 894.32011597551 365.56570106088 894.72711597551 C 366.91870106088 896.12411597551 368.46770106088 897.25711597551 370.21470106088 898.12711597551 C 370.77270106088 898.40211597551 370.74970106088 898.61611597551 370.14270106088 898.77111597551 C 364.71770106088 900.13211597551 358.97770106088 901.63611597551 352.92170106088 903.28311597551 C 344.18670106088 905.66011597551 335.98370106088 907.06711597551 327.40570106088 908.90111597551 C 326.07770106088 909.18311597551 322.99370106088 909.86111597551 322.12770106088 910.96611597551 C 321.31270106088 912.01211597551 321.38370106088 914.69911597551 321.45570106088 915.89711597551 C 322.45270106088 933.72211597551 323.80470106088 951.79311597551 325.51370106088 970.11411597551 C 326.51070106088 980.81411597551 327.83870106088 990.56511597551 329.49870106088 999.36411597551 C 329.51370106088 999.44011597551 329.56170106088 999.49111597551 329.64370106088 999.51411597551 C 329.70670106088 999.53411597551 329.77370106088 999.52511597551 329.84570106088 999.48611597551 C 329.88470106088 999.46211597551 329.90370106088 999.42811597551 329.90370106088 999.38511597551 C 329.94770106088 992.81911597551 329.94770106088 986.30211597551 329.90370106088 979.83211597551 C 329.75470106088 957.40011597551 329.67470106088 937.24411597551 329.66570106088 919.36211597551 C 329.66570106088 918.45711597551 329.70370106088 917.54811597551 329.78070106088 916.63311597551 C 329.80170106088 916.39811597551 329.97470106088 916.20411597551 330.20770106088 916.15711597551 C 354.46770106088 911.34111597551 379.44170106088 906.75611597551 402.99470106088 900.71311597551 C 418.24370106088 896.80011597551 433.53670106088 891.81011597551 446.85770106088 883.98411597551 C 456.33770106088 878.41711597551 464.44670106088 871.10311597551 468.52470106088 861.07411597551 C 468.53570106088 861.04911597551 468.54870106088 861.02511597551 468.56470106088 861.00311597551 C 468.67170106088 860.85111597551 468.88470106088 860.81411597551 469.03770106088 860.92311597551 C 491.00270106088 876.33111597551 509.67370106088 894.69911597551 527.03070106088 915.80411597551 L 531.77470106088 921.93511597551 C 535.39970106088 926.70811597551 538.73770106088 931.68411597551 541.78870106088 936.85911597551 L 547.74570106088 947.26311597551 C 547.80370106088 947.36511597551 547.78170106088 947.44811597551 547.68170106088 947.51611597551 L 547.53070106088 947.61711597551 C 547.48770106088 947.64511597551 547.45070106088 947.64111597551 547.42270106088 947.60211597551 L 539.38570106088 937.72511597551 C 532.30570106088 929.88411597551 524.74970106088 922.72911597551 516.72170106088 916.25911597551 C 516.44270106088 916.03811597551 516.27470106088 915.91311597551 516.21670106088 915.88311597551 C 515.63370106088 915.61011597551 515.51870106088 915.73911597551 515.86970106088 916.27311597551 C 517.27670106088 918.43211597551 518.83770106088 920.51911597551 520.18070106088 922.72111597551 C 523.47770106088 928.14611597551 526.76270106088 933.58511597551 530.03570106088 939.03911597551 L 543.79770106088 963.89111597551 C 543.85770106088 964.00111597551 543.96170106088 964.08311597551 544.08570106088 964.11511597551 C 544.44670106088 964.20611597551 544.68370106088 964.10611597551 544.79370106088 963.81211597551 C 544.85170106088 963.64211597551 544.95270106088 963.50511597551 545.09670106088 963.40011597551 C 556.65070106088 954.81311597551 567.53570106088 945.45511597551 577.75470106088 935.32911597551 L 590.44370106088 921.59911597551 Z M 227.99470106088 939.76611597551 C 228.00570106088 939.77511597551 228.01870106088 939.78111597551 228.03070106088 939.78711597551 C 228.01870106088 939.78111597551 228.00570106088 939.77511597551 227.99470106088 939.76611597551 Z M 228.09270106088 939.82011597551 C 228.11370106088 939.82611597551 228.13470106088 939.82611597551 228.15570106088 939.82911597551 C 228.13370106088 939.82511597551 228.11270106088 939.82511597551 228.09270106088 939.82011597551 Z M 228.21070106088 939.83311597551 C 228.22770106088 939.83211597551 228.24370106088 939.82511597551 228.26070106088 939.82011597551 C 228.24370106088 939.82511597551 228.22770106088 939.83211597551 228.21070106088 939.83311597551 Z M 228.32570106088 939.80011597551 C 228.34570106088 939.79011597551 228.36270106088 939.77511597551 228.38070106088 939.76111597551 C 228.36570106088 939.77311597551 228.35370106088 939.78811597551 228.33670106088 939.79711597551 C 228.33270106088 939.79811597551 228.32870106088 939.79811597551 228.32570106088 939.80011597551 Z M 228.41570106088 939.73411597551 C 228.44170106088 939.70511597551 228.46270106088 939.67211597551 228.47870106088 939.63411597551 C 228.46470106088 939.67211597551 228.44170106088 939.70411597551 228.41570106088 939.73411597551 Z M 436.18270106088 802.72511597551 C 431.79270106088 804.53811597551 430.01670106088 802.17611597551 427.67770106088 798.67511597551 C 425.40570106088 795.26111597551 424.08670106088 791.54511597551 423.71970106088 787.52611597551 C 424.46170106088 785.89411597551 425.47070106088 784.59711597551 426.74470106088 783.63511597551 C 427.06770106088 783.39111597551 427.50170106088 783.34911597551 427.86370106088 783.52711597551 C 431.98970106088 785.52411597551 436.36170106088 786.85011597551 440.98370106088 787.50611597551 C 441.57970106088 787.59311597551 442.11570106088 787.91511597551 442.47070106088 788.40111597551 C 443.56370106088 789.89911597551 443.98470106088 791.82811597551 443.73470106088 794.19211597551 C 442.73870106088 798.20911597551 440.22170106088 801.05411597551 436.18270106088 802.72511597551 Z M 421.28270106088 800.46611597551 C 421.28670106088 800.44811597551 421.29070106088 800.43311597551 421.29070106088 800.41611597551 C 421.29070106088 800.43311597551 421.28670106088 800.44911597551 421.28270106088 800.46611597551 Z M 421.22470106088 800.26611597551 C 421.22470106088 800.26611597551 421.22470106088 800.26611597551 421.22470106088 800.26811597551 C 421.23170106088 800.27311597551 421.23370106088 800.28111597551 421.23970106088 800.28811597551 C 421.23370106088 800.28111597551 421.22970106088 800.27311597551 421.22470106088 800.26611597551 Z M 421.27670106088 800.49911597551 C 421.26670106088 800.52511597551 421.25170106088 800.55211597551 421.22970106088 800.57211597551 C 421.24970106088 800.55211597551 421.26470106088 800.52711597551 421.27670106088 800.49911597551 Z M 421.27170106088 800.33511597551 C 421.27670106088 800.34711597551 421.27870106088 800.36011597551 421.28070106088 800.37311597551 C 421.27870106088 800.36111597551 421.27670106088 800.34711597551 421.27170106088 800.33511597551 Z M 421.33870106088 711.95211597551 L 429.95970106088 704.92611597551 C 437.02070106088 700.38711597551 444.75870106088 698.88511597551 453.17270106088 700.42111597551 C 453.85570106088 700.54611597551 454.06370106088 701.06211597551 453.79270106088 701.96711597551 L 453.02670106088 709.14311597551 L 453.00570106088 709.82911597551 C 452.98170106088 710.65711597551 452.67570106088 710.77711597551 452.08870106088 710.19011597551 C 447.93670106088 706.03811597551 441.90070106088 704.20411597551 435.99470106088 704.40611597551 C 433.90970106088 704.47911597551 431.89270106088 705.08011597551 429.94370106088 706.21111597551 C 429.87670106088 706.25011597551 429.85670106088 706.30511597551 429.88470106088 706.37811597551 L 429.96470106088 706.55011597551 C 429.97870106088 706.59011597551 430.00470106088 706.60111597551 430.04370106088 706.58711597551 C 433.56370106088 705.31611597551 437.14870106088 705.07111597551 440.80170106088 705.85011597551 C 440.72670106088 705.97511597551 440.62370106088 706.05511597551 440.49870106088 706.08911597551 C 436.15270106088 706.29911597551 432.29670106088 707.92311597551 429.40070106088 711.27311597551 C 427.93770106088 712.96711597551 426.38070106088 714.37711597551 424.72870106088 715.49711597551 C 424.02670106088 715.96911597551 424.02470106088 716.44611597551 424.72270106088 716.92711597551 C 426.40270106088 718.07411597551 428.24570106088 719.12811597551 430.25270106088 720.09111597551 C 438.94570106088 724.24911597551 448.81570106088 722.39311597551 454.70070106088 715.23211597551 C 454.74370106088 715.17911597551 454.79470106088 715.13211597551 454.84870106088 715.09011597551 C 455.21470106088 714.82311597551 455.73070106088 714.90111597551 455.99870106088 715.26811597551 L 457.76170106088 717.66511597551 C 465.35770106088 733.73011597551 458.17970106088 748.98511597551 445.06070106088 759.31811597551 C 442.99170106088 758.23011597551 440.92370106088 756.97911597551 438.85970106088 755.56411597551 C 434.81970106088 752.79211597551 430.44170106088 751.16311597551 425.72470106088 750.67611597551 C 425.29670106088 750.63211597551 425.25470106088 750.48311597551 425.60170106088 750.22811597551 L 428.20770106088 748.30011597551 L 431.94070106088 750.45911597551 C 432.00470106088 750.49611597551 432.07770106088 750.51111597551 432.15070106088 750.50111597551 C 432.33370106088 750.47611597551 432.46170106088 750.30511597551 432.43870106088 750.12011597551 C 432.15970106088 748.01611597551 431.69870106088 745.96011597551 431.05170106088 743.95311597551 C 428.73770106088 736.70411597551 425.97970106088 729.59811597551 422.77870106088 722.63211597551 C 421.46370106088 719.76611597551 420.78570106088 716.66811597551 420.65470106088 713.45511597551 C 420.63770106088 712.87211597551 420.88870106088 712.31511597551 421.33870106088 711.95211597551 Z M 329.40970106088 689.88711597551 C 330.51470106088 694.84011597551 330.03070106088 699.23711597551 326.29770106088 703.02811597551 C 323.20770106088 706.16911597551 317.58270106088 706.09011597551 314.88270106088 702.32111597551 C 314.62870106088 701.96011597551 314.69470106088 701.88011597551 315.08470106088 702.08211597551 C 317.10670106088 703.13611597551 321.96570106088 704.34911597551 323.56870106088 701.98111597551 C 324.02570106088 701.30911597551 323.96070106088 700.40911597551 323.40970106088 699.80711597551 L 321.80670106088 698.06011597551 C 321.76370106088 698.01411597551 321.73270106088 697.95811597551 321.71670106088 697.89711597551 C 321.66270106088 697.69311597551 321.78670106088 697.48111597551 321.99470106088 697.42511597551 C 323.55470106088 697.02711597551 326.05270106088 696.02411597551 325.75670106088 693.94511597551 C 325.57970106088 692.71711597551 325.44370106088 691.51911597551 325.35270106088 690.34911597551 C 325.15870106088 687.80211597551 327.49070106088 685.49811597551 329.46870106088 684.15411597551 C 330.00370106088 683.79411597551 330.16270106088 683.91711597551 329.94570106088 684.52311597551 C 329.34570106088 686.22611597551 329.01370106088 688.12611597551 329.40970106088 689.88711597551 Z M 320.79670106088 683.45311597551 C 320.75870106088 683.49611597551 320.70970106088 683.52311597551 320.65270106088 683.53111597551 C 320.52170106088 683.55111597551 320.39870106088 683.45711597551 320.37670106088 683.32311597551 C 318.96970106088 672.88311597551 317.39470106088 662.47811597551 317.34570106088 651.83511597551 C 317.25870106088 632.09511597551 326.57970106088 617.85611597551 342.07470106088 606.54311597551 C 355.15770106088 596.98811597551 369.84970106088 590.56611597551 386.15470106088 587.27911597551 C 396.52270106088 585.18611597551 408.24070106088 584.55711597551 418.26970106088 587.72711597551 C 418.50570106088 587.80411597551 418.64270106088 587.96611597551 418.68170106088 588.21111597551 L 423.90270106088 622.08111597551 C 423.90570106088 622.09911597551 423.90570106088 622.11711597551 423.90570106088 622.13611597551 C 423.89870106088 622.29911597551 423.76170106088 622.42711597551 423.59870106088 622.42211597551 C 407.26670106088 621.83611597551 391.64270106088 627.22311597551 377.88770106088 636.33511597551 C 366.66270106088 643.76611597551 355.69070106088 651.78211597551 344.97070106088 660.37811597551 C 336.60970106088 667.08811597551 328.55070106088 674.78011597551 320.79670106088 683.45311597551 Z M 448.75370106088 643.10711597551 C 448.75770106088 643.13611597551 448.74570106088 643.15211597551 448.71770106088 643.15811597551 C 446.51870106088 643.53811597551 444.39270106088 643.76211597551 442.34170106088 643.82811597551 C 434.32670106088 644.09811597551 426.70470106088 643.37111597551 419.47670106088 641.64811597551 C 414.98570106088 640.58011597551 410.96370106088 638.86811597551 407.41070106088 636.51411597551 C 406.23170106088 635.73011597551 406.29970106088 635.59711597551 407.61270106088 636.11811597551 C 413.88170106088 638.58211597551 420.43170106088 640.47911597551 427.26670106088 641.80811597551 C 434.23670106088 643.16511597551 441.09970106088 643.59411597551 447.85870106088 643.09311597551 C 448.15670106088 643.06811597551 448.45470106088 643.07411597551 448.75370106088 643.10711597551 Z M 433.55470106088 634.57311597551 C 424.99670106088 636.21011597551 416.79470106088 636.07011597551 408.94870106088 634.15411597551 C 406.10870106088 633.46111597551 403.71670106088 632.38811597551 401.77170106088 630.93511597551 C 400.90570106088 630.28411597551 400.96470106088 630.18411597551 401.95370106088 630.63111597551 C 411.15870106088 634.79011597551 423.25370106088 635.20911597551 433.54170106088 634.37911597551 C 433.59470106088 634.37411597551 433.62670106088 634.40011597551 433.63570106088 634.45811597551 C 433.64470106088 634.52011597551 433.61670106088 634.55811597551 433.55470106088 634.57311597551 Z M 387.05670106088 639.03511597551 C 390.48370106088 642.10511597551 393.69370106088 644.51511597551 396.68870106088 646.26311597551 C 409.17870106088 653.52611597551 423.17870106088 657.49711597551 437.10670106088 660.84011597551 C 437.17370106088 660.85411597551 437.20270106088 660.89911597551 437.19370106088 660.97011597551 L 437.19370106088 660.97711597551 C 437.18270106088 661.03611597551 437.14770106088 661.06111597551 437.08570106088 661.05611597551 C 428.57570106088 660.32511597551 420.15370106088 658.72011597551 411.82170106088 656.24011597551 C 403.38770106088 653.73611597551 394.68070106088 649.83711597551 388.88370106088 643.02811597551 C 387.79570106088 641.74711597551 387.01170106088 640.54211597551 386.52970106088 639.41111597551 C 386.14870106088 638.50511597551 386.32570106088 638.38011597551 387.05670106088 639.03511597551 Z M 430.35570106088 654.93311597551 C 423.85370106088 653.08011597551 417.63870106088 650.43311597551 411.71270106088 646.99211597551 C 408.56970106088 645.16711597551 405.68070106088 642.92211597551 403.04870106088 640.25411597551 C 403.01970106088 640.22611597551 403.01770106088 640.19711597551 403.04170106088 640.16811597551 L 403.04870106088 640.16811597551 C 403.09670106088 640.11111597551 403.15070106088 640.10311597551 403.20770106088 640.14611597551 C 410.57870106088 645.38811597551 417.44470106088 648.20511597551 426.16770106088 651.48911597551 C 437.15670106088 655.63311597551 448.30770106088 657.76011597551 459.61870106088 657.87111597551 C 459.64670106088 657.87111597551 459.66170106088 657.88611597551 459.66170106088 657.91411597551 C 459.66670106088 657.92411597551 459.66970106088 657.93411597551 459.66970106088 657.94411597551 C 459.66970106088 657.97311597551 459.65470106088 657.99011597551 459.62670106088 657.99411597551 C 456.37170106088 658.26911597551 452.98070106088 658.24411597551 449.45370106088 657.92211597551 C 442.94070106088 657.32411597551 436.63870106088 656.73211597551 430.35570106088 654.93311597551 Z M 456.11070106088 700.33811597551 C 456.08270106088 700.33411597551 456.05270106088 700.33011597551 456.02470106088 700.32911597551 C 456.05370106088 700.33011597551 456.08270106088 700.33411597551 456.11070106088 700.33811597551 Z M 456.28170106088 700.37811597551 C 456.25370106088 700.36911597551 456.22370106088 700.35811597551 456.19570106088 700.35211597551 C 456.22370106088 700.35911597551 456.25370106088 700.36811597551 456.28170106088 700.37811597551 Z M 455.93870106088 700.33111597551 C 455.91170106088 700.33311597551 455.88170106088 700.33511597551 455.85470106088 700.34011597551 C 455.88270106088 700.33511597551 455.91170106088 700.33411597551 455.93870106088 700.33111597551 Z M 455.77270106088 700.35911597551 C 455.74570106088 700.36711597551 455.71770106088 700.37311597551 455.69070106088 700.38411597551 C 455.71870106088 700.37311597551 455.74570106088 700.36611597551 455.77270106088 700.35911597551 Z M 455.61470106088 700.41611597551 C 455.58970106088 700.42911597551 455.56270106088 700.44211597551 455.53870106088 700.45811597551 C 455.56270106088 700.44211597551 455.58970106088 700.42911597551 455.61470106088 700.41611597551 Z M 455.47170106088 700.50311597551 C 455.44770106088 700.52211597551 455.42370106088 700.54011597551 455.40170106088 700.55911597551 C 455.42370106088 700.54011597551 455.44670106088 700.52211597551 455.47170106088 700.50311597551 Z M 455.34270106088 700.61911597551 C 455.32270106088 700.64111597551 455.30370106088 700.66311597551 455.28470106088 700.68811597551 C 455.30370106088 700.66411597551 455.32270106088 700.64211597551 455.34270106088 700.61911597551 Z M 455.23770106088 700.76311597551 C 455.21670106088 700.79711597551 455.19470106088 700.83111597551 455.17870106088 700.86811597551 C 455.18670106088 700.85011597551 455.19670106088 700.83211597551 455.20470106088 700.81311597551 C 455.21470106088 700.79611597551 455.22770106088 700.78011597551 455.23770106088 700.76311597551 Z M 453.11570106088 712.61411597551 C 453.11270106088 712.64311597551 453.11070106088 712.67011597551 453.10870106088 712.69911597551 C 453.11070106088 712.67011597551 453.11270106088 712.64211597551 453.11570106088 712.61411597551 Z M 453.23470106088 712.23211597551 C 453.22270106088 712.25511597551 453.21370106088 712.27711597551 453.20370106088 712.30111597551 C 453.21370106088 712.27711597551 453.22270106088 712.25511597551 453.23470106088 712.23211597551 Z M 453.15770106088 712.41811597551 C 453.14970106088 712.44411597551 453.14270106088 712.47111597551 453.13670106088 712.50011597551 C 453.14270106088 712.47111597551 453.14970106088 712.44611597551 453.15770106088 712.41811597551 Z M 453.39370106088 713.48311597551 C 453.37070106088 713.45711597551 453.34770106088 713.43111597551 453.32770106088 713.40311597551 C 453.34770106088 713.43011597551 453.37070106088 713.45811597551 453.39370106088 713.48311597551 Z M 453.26670106088 713.31411597551 C 453.24770106088 713.28411597551 453.23170106088 713.25211597551 453.21570106088 713.22011597551 C 453.23170106088 713.25311597551 453.24870106088 713.28411597551 453.26670106088 713.31411597551 Z M 453.17670106088 713.12411597551 C 453.16270106088 713.09011597551 453.15270106088 713.05611597551 453.14370106088 713.02111597551 C 453.15170106088 713.05611597551 453.16270106088 713.09011597551 453.17670106088 713.12411597551 Z M 453.12270106088 712.91911597551 C 453.11570106088 712.88111597551 453.11270106088 712.84311597551 453.11070106088 712.80411597551 C 453.11270106088 712.84411597551 453.11570106088 712.88311597551 453.12270106088 712.91911597551 Z M 453.92870106088 713.80511597551 C 453.88870106088 713.79411597551 453.84770106088 713.78311597551 453.80870106088 713.76811597551 C 453.84670106088 713.78311597551 453.88870106088 713.79411597551 453.92870106088 713.80511597551 Z M 453.72970106088 713.73311597551 C 453.69470106088 713.71611597551 453.66070106088 713.69911597551 453.62770106088 713.67811597551 C 453.66070106088 713.69911597551 453.69470106088 713.71611597551 453.72970106088 713.73311597551 Z M 453.55770106088 713.63111597551 C 453.54470106088 713.62111597551 453.52970106088 713.61311597551 453.51570106088 713.60211597551 C 453.50070106088 713.59011597551 453.48970106088 713.57611597551 453.47670106088 713.56311597551 C 453.50370106088 713.58711597551 453.52970106088 713.61011597551 453.55770106088 713.63111597551 Z M 454.20470106088 713.84411597551 C 454.13670106088 713.84411597551 454.06770106088 713.83611597551 454.00070106088 713.82311597551 C 454.06670106088 713.83611597551 454.13470106088 713.84411597551 454.20470106088 713.84411597551 Z M 431.82270106088 715.59111597551 C 438.11070106088 716.41411597551 444.57270106088 715.75811597551 450.76070106088 714.82611597551 C 451.54570106088 714.71011597551 451.65970106088 714.93411597551 451.10770106088 715.49611597551 C 450.57470106088 716.04011597551 449.97170106088 716.47211597551 449.30170106088 716.78911597551 C 441.64570106088 720.45711597551 434.17370106088 720.65911597551 426.89070106088 717.39511597551 C 426.24570106088 717.10711597551 425.68270106088 716.75411597551 425.20170106088 716.34111597551 C 425.16670106088 716.31211597551 425.13870106088 716.27411597551 425.12270106088 716.23311597551 C 425.06170106088 716.08911597551 425.13070106088 715.92411597551 425.27370106088 715.86511597551 L 427.32470106088 715.02011597551 C 427.50070106088 714.94611597551 427.63870106088 714.80211597551 427.70770106088 714.62411597551 C 427.86170106088 714.20011597551 428.14570106088 713.99611597551 428.56070106088 714.01011597551 C 428.83070106088 714.02011597551 429.06470106088 713.94111597551 429.26670106088 713.77311597551 C 429.87370106088 713.27211597551 430.46870106088 712.74211597551 431.04970106088 712.18411597551 C 432.99470106088 710.31111597551 433.42670106088 710.60911597551 432.34270106088 713.07911597551 C 432.05870106088 713.72011597551 431.78370106088 714.38911597551 431.51970106088 715.08711597551 C 431.40870106088 715.38511597551 431.50970106088 715.55311597551 431.82270106088 715.59111597551 Z M 443.44570106088 710.48611597551 L 443.47570106088 710.38611597551 C 443.47570106088 710.38311597551 443.47570106088 710.38211597551 443.47570106088 710.38111597551 C 443.52170106088 710.20411597551 443.70170106088 710.09511597551 443.87870106088 710.14011597551 L 446.26170106088 710.72511597551 C 446.26270106088 710.72511597551 446.26470106088 710.72511597551 446.26670106088 710.72511597551 C 446.44470106088 710.77111597551 446.55270106088 710.95111597551 446.50670106088 711.12911597551 L 446.47870106088 711.23011597551 C 446.47870106088 711.23111597551 446.47870106088 711.23111597551 446.47870106088 711.23211597551 C 446.29170106088 711.99511597551 445.49670106088 712.45711597551 444.70270106088 712.26311597551 L 444.55170106088 712.22611597551 C 444.54770106088 712.22511597551 444.54370106088 712.22511597551 444.53970106088 712.22411597551 C 443.74570106088 712.02711597551 443.25770106088 711.24911597551 443.44570106088 710.48611597551 Z M 443.43970106088 788.40011597551 C 443.43970106088 788.37911597551 443.44470106088 788.36111597551 443.44570106088 788.34111597551 C 443.44370106088 788.37311597551 443.44070106088 788.40611597551 443.44170106088 788.44111597551 C 443.44170106088 788.42611597551 443.43970106088 788.41311597551 443.43970106088 788.40011597551 Z M 443.59970106088 787.86911597551 C 443.61870106088 787.83911597551 443.63870106088 787.81111597551 443.65970106088 787.78411597551 C 443.63870106088 787.81211597551 443.61870106088 787.84011597551 443.59970106088 787.86911597551 Z M 443.64770106088 789.03511597551 C 443.60870106088 788.98411597551 443.57770106088 788.92911597551 443.54870106088 788.87311597551 C 443.57770106088 788.92911597551 443.60870106088 788.98311597551 443.64770106088 789.03511597551 Z M 443.52270106088 788.81111597551 C 443.50670106088 788.77511597551 443.49270106088 788.73711597551 443.48070106088 788.69911597551 C 443.49270106088 788.73711597551 443.50770106088 788.77511597551 443.52270106088 788.81111597551 Z M 443.46470106088 788.62511597551 C 443.45670106088 788.58911597551 443.45170106088 788.55111597551 443.44770106088 788.51511597551 C 443.45170106088 788.55111597551 443.45670106088 788.58911597551 443.46470106088 788.62511597551 Z M 443.45770106088 788.23611597551 C 443.46470106088 788.20311597551 443.47270106088 788.17111597551 443.48070106088 788.13811597551 C 443.47170106088 788.17011597551 443.46470106088 788.20211597551 443.45770106088 788.23611597551 Z M 443.51170106088 788.04611597551 C 443.52370106088 788.01411597551 443.53770106088 787.98311597551 443.55370106088 787.95211597551 C 443.53770106088 787.98311597551 443.52270106088 788.01411597551 443.51170106088 788.04611597551 Z M 443.80270106088 787.63711597551 C 443.77470106088 787.66111597551 443.74570106088 787.68711597551 443.72170106088 787.71211597551 C 443.74770106088 787.68711597551 443.77470106088 787.66011597551 443.80270106088 787.63711597551 Z M 443.87670106088 787.57611597551 C 443.89770106088 787.56211597551 443.91970106088 787.54911597551 443.94170106088 787.53611597551 C 443.91970106088 787.54911597551 443.89670106088 787.56311597551 443.87670106088 787.57611597551 Z M 444.03970106088 787.48411597551 C 444.06270106088 787.47411597551 444.08570106088 787.46311597551 444.10870106088 787.45611597551 C 444.08570106088 787.46311597551 444.06270106088 787.47411597551 444.03970106088 787.48411597551 Z M 444.22470106088 787.42111597551 C 444.24570106088 787.41511597551 444.26570106088 787.40911597551 444.28970106088 787.40511597551 C 444.26770106088 787.40911597551 444.24570106088 787.41511597551 444.22470106088 787.42111597551 Z M 479.23070106088 693.38111597551 C 478.12270106088 696.84711597551 475.77870106088 699.18911597551 472.19670106088 700.40711597551 C 472.13370106088 700.42711597551 472.09170106088 700.40711597551 472.06770106088 700.34911597551 L 472.05970106088 700.34111597551 C 472.02570106088 700.25911597551 472.05270106088 700.20111597551 472.13870106088 700.16811597551 C 474.68070106088 699.23911597551 476.50770106088 697.59011597551 477.61870106088 695.22311597551 C 480.75970106088 688.53011597551 477.90770106088 679.38911597551 472.30470106088 674.85411597551 C 471.45270106088 674.16611597551 470.57070106088 673.47811597551 469.65570106088 672.78911597551 C 467.87070106088 671.44611597551 468.00970106088 671.20111597551 470.07470106088 672.05211597551 C 478.28370106088 675.44711597551 481.85070106088 685.15811597551 479.23070106088 693.38111597551 Z M 496.08970106088 589.88011597551 C 496.35070106088 589.36411597551 496.49070106088 589.39611597551 496.51570106088 589.97411597551 C 496.80070106088 596.15811597551 493.89570106088 600.20411597551 487.80070106088 602.11011597551 C 480.73270106088 604.32811597551 472.11170106088 602.15311597551 465.82870106088 598.35611597551 C 465.81370106088 598.34511597551 465.80070106088 598.33911597551 465.78570106088 598.33411597551 C 465.77070106088 598.33011597551 465.75970106088 598.33211597551 465.74970106088 598.34211597551 C 465.73470106088 598.34611597551 465.72370106088 598.34511597551 465.71470106088 598.33411597551 C 465.69970106088 598.32511597551 465.69470106088 598.31611597551 465.69970106088 598.30611597551 C 465.70870106088 598.27711597551 465.72770106088 598.26511597551 465.75770106088 598.27011597551 C 476.00270106088 600.39211597551 490.63170106088 600.69511597551 496.08970106088 589.88011597551 Z M 482.42970106088 568.19811597551 C 482.20770106088 567.56211597551 482.30670106088 567.50711597551 482.72570106088 568.03111597551 C 487.36070106088 573.78611597551 488.14070106088 584.66011597551 479.30270106088 587.32311597551 C 477.59370106088 587.83911597551 475.56570106088 588.08111597551 473.21570106088 588.05211597551 C 465.25870106088 587.95811597551 457.64970106088 587.17211597551 449.90270106088 586.10311597551 C 449.81070106088 586.09211597551 449.76770106088 586.04011597551 449.77170106088 585.94411597551 C 449.78270106088 585.87211597551 449.82270106088 585.83611597551 449.89470106088 585.83611597551 C 458.05370106088 585.91611597551 466.31370106088 585.25211597551 473.85870106088 582.80311597551 C 480.31270106088 580.70211597551 484.94770106088 575.33011597551 482.42970106088 568.19811597551 Z M 450.74570106088 574.12511597551 C 453.62970106088 573.85511597551 455.59170106088 573.72911597551 456.63170106088 573.74911597551 C 456.65070106088 573.74911597551 456.67170106088 573.75411597551 456.69470106088 573.76411597551 C 456.71970106088 573.77411597551 456.73170106088 573.79011597551 456.73170106088 573.81511597551 C 456.72570106088 573.84311597551 456.71170106088 573.86011597551 456.68870106088 573.86611597551 C 450.10770106088 574.66011597551 444.28870106088 575.70411597551 439.22970106088 576.99911597551 C 434.30570106088 578.26011597551 429.35670106088 579.35411597551 424.38570106088 580.28411597551 C 423.74470106088 580.40511597551 423.09270106088 580.47411597551 422.42770106088 580.49411597551 C 421.62870106088 580.52211597551 421.60670106088 580.40911597551 422.36370106088 580.15511597551 C 431.59170106088 577.04411597551 441.05270106088 575.03411597551 450.74570106088 574.12511597551 Z M 310.87570106088 690.13211597551 C 310.65970106088 690.14211597551 310.44270106088 690.15911597551 310.22670106088 690.18311597551 C 308.81070106088 690.32811597551 307.36470106088 690.34211597551 305.88670106088 690.22611597551 C 305.50670106088 690.19711597551 305.49670106088 690.12311597551 305.85770106088 690.00311597551 C 307.19070106088 689.55011597551 308.54570106088 689.16611597551 309.92370106088 688.84711597551 C 310.20670106088 688.77911597551 310.48570106088 688.80811597551 310.76070106088 688.93411597551 C 311.05370106088 689.07411597551 311.22470106088 689.31111597551 311.27370106088 689.64911597551 C 311.31070106088 689.95211597551 311.17970106088 690.11411597551 310.87570106088 690.13211597551 Z M 311.95770106088 680.58711597551 C 305.79970106088 684.55111597551 296.52070106088 684.07411597551 290.70270106088 680.40711597551 C 275.92170106088 671.07711597551 273.85070106088 652.10311597551 283.72770106088 638.48511597551 C 283.88170106088 638.27411597551 283.92770106088 638.04311597551 283.86470106088 637.79211597551 L 283.64770106088 636.89011597551 C 283.58470106088 636.63411597551 283.60770106088 636.38911597551 283.71270106088 636.15311597551 C 284.48770106088 634.40211597551 284.87970106088 632.63011597551 284.88970106088 630.84011597551 C 284.90370106088 627.62511597551 285.04870106088 624.38111597551 285.32270106088 621.10711597551 C 286.15970106088 611.14411597551 291.64070106088 603.02111597551 300.17470106088 597.95911597551 C 307.92970106088 593.35311597551 316.48570106088 589.76511597551 324.13870106088 584.14711597551 C 332.78770106088 577.80011597551 340.42870106088 569.52611597551 349.05570106088 562.80411597551 C 364.59470106088 550.69811597551 382.22970106088 543.05611597551 401.96570106088 539.88011597551 C 409.91470106088 538.60211597551 418.95470106088 539.10011597551 425.25070106088 544.14711597551 C 431.53170106088 549.17911597551 431.56770106088 558.68111597551 428.73770106088 565.60511597551 C 428.57370106088 566.00711597551 428.20470106088 566.28411597551 427.77770106088 566.32811597551 C 421.18770106088 566.99211597551 415.24070106088 568.23411597551 409.93670106088 570.05411597551 C 402.73070106088 572.52911597551 395.18070106088 576.36711597551 387.28670106088 581.57111597551 C 387.18170106088 581.63711597551 387.07270106088 581.64811597551 386.96170106088 581.59911597551 C 386.94170106088 581.58911597551 386.92470106088 581.57511597551 386.91070106088 581.55611597551 C 386.87670106088 581.48311597551 386.88570106088 581.42011597551 386.93970106088 581.36811597551 C 394.79470106088 572.99611597551 404.33570106088 567.24711597551 415.56170106088 564.11811597551 C 419.06470106088 563.14111597551 422.60270106088 562.72911597551 426.17370106088 562.88411597551 C 426.35270106088 562.88811597551 426.45170106088 562.80411597551 426.46970106088 562.63111597551 L 426.48470106088 562.44311597551 C 426.48970106088 562.40911597551 426.47570106088 562.38911597551 426.44170106088 562.38511597551 C 421.21870106088 561.47511597551 416.21970106088 561.41711597551 411.44570106088 562.21211597551 C 397.68270106088 564.50311597551 384.87770106088 569.75711597551 373.02670106088 577.97311597551 C 367.20770106088 582.01211597551 361.67370106088 586.40411597551 356.42770106088 591.15111597551 C 356.37470106088 591.20311597551 356.31970106088 591.20211597551 356.26070106088 591.14311597551 C 356.20870106088 591.09111597551 356.20570106088 591.03511597551 356.25470106088 590.97711597551 C 358.86370106088 588.08911597551 361.62670106088 585.24411597551 364.54370106088 582.44211597551 C 375.14770106088 572.24311597551 386.99670106088 565.23911597551 400.08870106088 561.43111597551 C 403.27070106088 560.50811597551 406.77070106088 559.86211597551 410.58670106088 559.49711597551 C 410.65870106088 559.49211597551 410.70670106088 559.45311597551 410.73170106088 559.38111597551 C 410.75470106088 559.30911597551 410.75470106088 559.24111597551 410.73170106088 559.17911597551 C 410.70770106088 559.11111597551 410.65970106088 559.07611597551 410.58670106088 559.07111597551 C 405.86870106088 558.74911597551 400.91870106088 558.79211597551 395.73370106088 559.20111597551 C 378.03670106088 560.58611597551 364.57870106088 569.80711597551 350.59270106088 579.59111597551 C 347.15470106088 581.99811597551 342.72570106088 584.49811597551 337.30070106088 587.09311597551 C 319.35770106088 595.67111597551 298.99670106088 605.63411597551 300.52070106088 629.39711597551 C 300.88870106088 635.06511597551 301.62470106088 640.89811597551 300.90270106088 646.56611597551 C 300.67270106088 648.39611597551 300.50870106088 648.39111597551 300.41270106088 646.55211597551 C 300.06570106088 640.22711597551 297.37170106088 634.95911597551 292.33270106088 630.74711597551 C 291.67770106088 630.19811597551 291.57470106088 630.28711597551 292.02170106088 631.01311597551 C 296.20270106088 637.75711597551 294.42570106088 644.15411597551 291.80570106088 651.18011597551 C 290.35670106088 655.07911597551 290.06970106088 658.91811597551 290.94570106088 662.69711597551 C 293.01870106088 671.60611597551 301.83370106088 680.84811597551 311.81970106088 680.19111597551 C 312.38470106088 680.15211597551 312.43070106088 680.28311597551 311.95770106088 680.58711597551 Z M 314.65170106088 707.16511597551 C 314.60370106088 707.13611597551 314.59170106088 707.09711597551 314.61470106088 707.04911597551 L 314.62270106088 707.04311597551 C 314.66570106088 706.95611597551 314.72870106088 706.93711597551 314.81070106088 706.98411597551 C 317.84370106088 708.67511597551 322.98370106088 708.15411597551 326.01570106088 707.07111597551 C 326.49370106088 706.89811597551 326.53370106088 706.96911597551 326.13970106088 707.28811597551 C 322.96270106088 709.82311597551 317.89370106088 709.14311597551 314.65170106088 707.16511597551 Z M 338.01670106088 766.78311597551 C 337.82870106088 765.91211597551 337.55770106088 765.01211597551 337.20070106088 764.08311597551 C 336.81070106088 763.07211597551 336.61170106088 763.10711597551 336.60170106088 764.19111597551 C 336.58770106088 765.77911597551 336.61570106088 767.91711597551 335.77870106088 769.28811597551 C 335.62770106088 769.53211597551 335.37970106088 769.69711597551 335.10070106088 769.74311597551 C 334.16670106088 769.90211597551 333.17970106088 769.77211597551 332.13970106088 769.35311597551 C 328.64070106088 767.93711597551 326.63770106088 765.66211597551 326.13270106088 762.52311597551 C 325.66270106088 759.63511597551 324.95570106088 756.84111597551 323.47570106088 754.27711597551 C 320.83270106088 749.68411597551 318.37770106088 745.44611597551 319.15170106088 740.04611597551 C 319.48270106088 737.75011597551 320.06770106088 735.49511597551 320.90570106088 733.28111597551 C 321.10770106088 732.74111597551 321.33070106088 732.73211597551 321.57570106088 733.25111597551 C 322.74570106088 735.72811597551 322.13270106088 739.00611597551 322.18970106088 741.68411597551 C 322.21370106088 742.80111597551 322.52170106088 742.88511597551 323.11370106088 741.93711597551 C 323.53170106088 741.25911597551 323.77070106088 740.27611597551 324.64470106088 740.02311597551 C 324.70870106088 740.00611597551 324.77370106088 740.00011597551 324.84070106088 740.00311597551 C 325.17070106088 740.02311597551 325.42270106088 740.30711597551 325.40270106088 740.63711597551 C 325.32570106088 741.86511597551 325.29970106088 743.05511597551 325.32270106088 744.21111597551 C 325.38770106088 747.19311597551 328.60870106088 748.55011597551 328.67270106088 751.37411597551 C 328.72070106088 753.23111597551 328.33070106088 755.17711597551 327.50370106088 757.20711597551 C 327.48970106088 757.24611597551 327.50170106088 757.27511597551 327.53870106088 757.29311597551 L 327.74070106088 757.38711597551 C 327.89570106088 757.45511597551 328.01070106088 757.41411597551 328.08770106088 757.26411597551 C 329.59970106088 754.38611597551 330.16070106088 751.27911597551 329.77070106088 747.94211597551 C 329.43770106088 745.06811597551 331.71970106088 742.76611597551 333.38770106088 740.61411597551 C 336.38370106088 736.75811597551 336.27570106088 733.51011597551 336.22470106088 728.00011597551 C 336.17070106088 721.70011597551 335.86570106088 715.45111597551 335.30770106088 709.25611597551 C 335.25870106088 708.72011597551 335.46470106088 708.19211597551 335.86370106088 707.83511597551 C 340.54270106088 703.60311597551 342.71570106088 698.65711597551 344.51470106088 692.61311597551 C 344.61970106088 692.25711597551 344.56970106088 691.92811597551 344.36170106088 691.62411597551 C 341.27170106088 687.16211597551 340.44170106088 682.31711597551 342.31970106088 677.11111597551 C 343.69170106088 673.30311597551 345.00070106088 669.75211597551 346.24670106088 666.45511597551 C 346.63170106088 665.44411597551 347.29670106088 664.62511597551 348.23970106088 664.00011597551 C 357.93870106088 657.57911597551 367.29370106088 651.33011597551 376.30470106088 645.25511597551 C 376.42270106088 645.17411597551 376.58170106088 645.19611597551 376.67270106088 645.30611597551 C 393.73470106088 666.16511597551 424.24670106088 672.05011597551 449.77770106088 672.02911597551 C 450.02270106088 672.02911597551 450.19170106088 672.14411597551 450.28270106088 672.37511597551 L 450.77470106088 673.63911597551 C 452.84570106088 680.64211597551 453.40970106088 687.53111597551 453.65470106088 694.84511597551 C 450.25170106088 692.95711597551 446.59770106088 691.65111597551 442.69470106088 690.92411597551 C 439.01570106088 690.23511597551 435.09070106088 689.69611597551 430.91870106088 689.30611597551 C 426.51370106088 688.89211597551 423.16370106088 689.86711597551 420.86770106088 692.23011597551 C 418.36170106088 694.80811597551 419.25070106088 697.85511597551 420.70870106088 700.73611597551 C 415.87870106088 704.56911597551 412.75970106088 710.01311597551 413.34470106088 715.84811597551 C 413.83070106088 720.76211597551 414.12970106088 725.93911597551 414.24070106088 731.37911597551 C 414.27370106088 732.83711597551 414.56770106088 734.34611597551 415.12070106088 735.90511597551 C 416.32570106088 739.29111597551 417.94370106088 741.63111597551 418.03770106088 745.67411597551 C 417.33770106088 751.37211597551 412.73070106088 754.09311597551 407.37370106088 753.24111597551 C 405.58970106088 752.95311597551 404.34170106088 752.09411597551 402.85370106088 751.17711597551 C 401.06970106088 750.08011597551 398.96870106088 750.04311597551 396.95370106088 750.54211597551 C 396.06570106088 750.76611597551 395.12570106088 750.51211597551 394.47070106088 749.87011597551 C 390.84670106088 746.32611597551 393.56170106088 742.69311597551 396.68870106088 740.02111597551 C 397.95370106088 738.93811597551 397.83170106088 738.75011597551 396.31970106088 739.45911597551 C 392.07470106088 741.45111597551 389.30970106088 745.03311597551 391.06370106088 749.97811597551 C 391.24370106088 750.49911597551 391.72770106088 751.02611597551 392.01570106088 751.49511597551 C 392.18570106088 751.77411597551 392.11270106088 751.96611597551 391.79870106088 752.07311597551 C 383.66970106088 754.84511597551 376.47070106088 760.94611597551 369.84270106088 766.57011597551 C 359.45270106088 775.38711597551 347.27870106088 771.13311597551 341.51670106088 759.81211597551 C 340.00570106088 756.84211597551 338.84770106088 753.66311597551 338.04370106088 750.27411597551 C 338.01870106088 750.17711597551 337.95770106088 750.13711597551 337.85570106088 750.15111597551 L 337.85070106088 750.15111597551 C 337.75370106088 750.16511597551 337.70870106088 750.22511597551 337.71270106088 750.33211597551 C 339.17870106088 768.15811597551 349.79370106088 788.63611597551 369.84370106088 790.23711597551 C 384.57970106088 791.40711597551 399.01270106088 783.42911597551 407.98070106088 771.96411597551 C 409.00570106088 770.65011597551 409.86470106088 769.23511597551 410.55870106088 767.71811597551 C 410.74670106088 767.31411597551 410.94370106088 767.31011597551 411.15070106088 767.70311597551 C 414.54870106088 774.15911597551 419.06370106088 778.80511597551 424.69570106088 781.64611597551 C 424.76770106088 781.68311597551 424.82570106088 781.74411597551 424.85770106088 781.81911597551 C 424.93870106088 782.00111597551 424.85670106088 782.21511597551 424.67370106088 782.29611597551 C 417.88670106088 785.18411597551 409.47470106088 786.63511597551 402.42770106088 784.69211597551 C 400.88370106088 784.26911597551 399.34970106088 783.96711597551 397.82770106088 783.79111597551 C 397.82770106088 783.79111597551 397.82670106088 783.79111597551 397.82670106088 783.78911597551 C 397.70270106088 783.77911597551 397.59470106088 783.86911597551 397.58270106088 783.99111597551 L 397.56070106088 784.19511597551 C 397.53770106088 784.41411597551 397.67170106088 784.62411597551 397.88570106088 784.70011597551 C 401.93770106088 786.08711597551 403.77170106088 788.90111597551 404.88270106088 792.73611597551 C 407.09270106088 800.36111597551 404.62970106088 809.79711597551 400.55770106088 816.38911597551 C 400.30570106088 816.80811597551 399.74970106088 817.21911597551 399.55370106088 817.52911597551 C 399.15570106088 818.18411597551 399.29470106088 818.33211597551 399.97270106088 817.97011597551 C 403.20770106088 816.24111597551 405.90070106088 813.67711597551 408.05270106088 810.27311597551 C 408.49970106088 809.57111597551 408.63370106088 809.62611597551 408.45670106088 810.44011597551 C 407.80770106088 813.41411597551 407.30870106088 815.74011597551 408.33370106088 818.68511597551 C 408.73770106088 819.85011597551 408.99270106088 819.81911597551 409.09970106088 818.59111597551 C 409.42470106088 814.68411597551 410.76070106088 810.88711597551 413.36770106088 807.91911597551 C 416.28370106088 804.58411597551 418.21170106088 801.81111597551 417.81470106088 797.08211597551 C 417.77570106088 796.65811597551 417.87770106088 796.62011597551 418.11770106088 796.96611597551 L 420.63070106088 800.64211597551 C 422.57570106088 803.29911597551 423.83970106088 805.22811597551 424.42170106088 806.43211597551 C 428.38270106088 814.64411597551 426.51770106088 821.31111597551 418.82470106088 826.43211597551 C 415.21970106088 828.44011597551 411.68370106088 829.45311597551 408.21870106088 829.47111597551 C 402.21770106088 829.50111597551 395.62470106088 828.17411597551 388.44270106088 825.49311597551 C 372.31370106088 819.45711597551 356.59470106088 808.87311597551 347.20870106088 794.59111597551 C 341.68470106088 786.19811597551 340.07370106088 776.33511597551 338.01670106088 766.78311597551 Z M 373.35270106088 827.82811597551 C 373.34770106088 827.78011597551 373.36070106088 827.73211597551 373.38670106088 827.69111597551 C 373.45170106088 827.59411597551 373.58070106088 827.57011597551 373.67770106088 827.63311597551 C 387.36770106088 836.38511597551 401.49170106088 840.70611597551 416.05370106088 840.60111597551 C 416.71770106088 840.59711597551 416.93970106088 840.90811597551 416.71770106088 841.53311597551 C 415.61470106088 844.66211597551 414.52070106088 847.42911597551 413.43270106088 849.83711597551 C 412.99470106088 850.80411597551 411.85870106088 851.84611597551 410.02470106088 852.96211597551 C 405.08670106088 855.97211597551 400.46970106088 858.91211597551 396.17670106088 861.78511597551 C 395.24170106088 862.41211597551 394.22670106088 862.72011597551 393.12970106088 862.71011597551 C 388.23370106088 862.67711597551 383.90870106088 863.30711597551 380.15370106088 864.60211597551 C 379.67270106088 864.77111597551 379.24470106088 864.68411597551 378.86870106088 864.34211597551 C 370.39570106088 856.59311597551 361.43870106088 848.55911597551 351.99470106088 840.24011597551 C 351.03670106088 839.39311597551 350.54270106088 838.39711597551 350.51470106088 837.25211597551 C 350.36370106088 831.46211597551 350.29170106088 825.59211597551 349.97270106088 819.91611597551 C 349.68870106088 814.77511597551 349.44570106088 809.56011597551 349.24370106088 804.27011597551 C 349.23470106088 803.94811597551 349.35170106088 803.89111597551 349.59770106088 804.10411597551 C 350.92670106088 805.25011597551 352.20370106088 806.34211597551 353.43070106088 807.38211597551 C 365.49670106088 817.61211597551 371.32970106088 830.21211597551 373.46870106088 845.83611597551 C 373.64570106088 847.13711597551 373.79070106088 847.13411597551 373.90170106088 845.83011597551 C 374.41470106088 840.00311597551 373.77970106088 833.79411597551 373.35270106088 827.82811597551 Z M 370.37070106088 869.33811597551 C 363.09170106088 870.94811597551 356.51570106088 873.62711597551 350.32070106088 877.95911597551 C 350.16270106088 878.06311597551 349.95770106088 878.06311597551 349.79970106088 877.95911597551 C 344.70170106088 874.43111597551 341.14370106088 870.25311597551 339.12170106088 865.42511597551 C 337.36770106088 861.23711597551 336.12570106088 857.10811597551 337.45370106088 852.80511597551 C 338.63870106088 848.96311597551 339.95670106088 845.02811597551 341.41070106088 840.99911597551 C 341.61270106088 840.43611597551 341.96470106088 840.32211597551 342.46570106088 840.65911597551 C 343.51970106088 841.36711597551 344.52870106088 842.15011597551 345.49070106088 843.00611597551 C 353.90970106088 850.48611597551 362.26070106088 859.08811597551 370.54470106088 868.81211597551 C 370.78070106088 869.08511597551 370.72170106088 869.26111597551 370.37070106088 869.33811597551 Z M 402.65870106088 890.45711597551 C 402.57970106088 890.72211597551 402.36470106088 890.92111597551 402.09570106088 890.98511597551 C 395.47370106088 892.45311597551 388.85170106088 893.96811597551 382.23370106088 895.53411597551 C 381.57870106088 895.68711597551 380.98570106088 895.57111597551 380.45070106088 895.18611597551 C 376.71470106088 892.45311597551 373.70970106088 889.56711597551 371.43370106088 886.52911597551 C 370.02470106088 884.66011597551 371.18670106088 882.51511597551 372.08970106088 880.71711597551 C 374.33370106088 876.23611597551 376.72270106088 872.54811597551 379.25970106088 869.65511597551 C 381.46970106088 867.14111597551 384.58870106088 867.33011597551 387.36770106088 868.70211597551 C 393.67770106088 871.82611597551 398.68170106088 875.64211597551 402.37770106088 880.15311597551 C 404.46470106088 882.70311597551 403.50470106088 887.65711597551 402.65870106088 890.45711597551 Z M 435.89470106088 846.71711597551 C 428.29070106088 858.64611597551 415.86470106088 868.06011597551 401.55370106088 869.88811597551 C 401.51970106088 869.89011597551 401.48470106088 869.88211597551 401.45470106088 869.86311597551 C 401.38970106088 869.81911597551 401.37170106088 869.73311597551 401.41670106088 869.67211597551 C 401.55670106088 869.48411597551 401.73170106088 869.33011597551 401.94370106088 869.20911597551 C 409.10570106088 865.09311597551 416.44870106088 860.83411597551 423.04770106088 856.58211597551 C 427.78970106088 853.52911597551 431.91270106088 850.12011597551 435.41670106088 846.35011597551 C 436.92470106088 844.73211597551 437.08370106088 844.85511597551 435.89470106088 846.71711597551 Z M 533.40970106088 920.06311597551 C 533.34670106088 920.05511597551 533.28570106088 920.05311597551 533.22270106088 920.05711597551 C 533.28470106088 920.05311597551 533.34670106088 920.05511597551 533.40970106088 920.06311597551 Z M 533.16870106088 920.06111597551 C 533.13370106088 920.06511597551 533.09870106088 920.07511597551 533.06470106088 920.08311597551 C 533.09870106088 920.07411597551 533.13370106088 920.06511597551 533.16870106088 920.06111597551 Z M 532.98470106088 920.10411597551 C 532.95470106088 920.11511597551 532.92670106088 920.12811597551 532.89970106088 920.14111597551 C 532.92770106088 920.12811597551 532.95670106088 920.11411597551 532.98470106088 920.10411597551 Z M 532.81770106088 920.18011597551 C 532.79170106088 920.19611597551 532.76770106088 920.21511597551 532.74370106088 920.23211597551 C 532.76770106088 920.21411597551 532.79170106088 920.19611597551 532.81770106088 920.18011597551 Z M 532.67070106088 920.28611597551 C 532.64770106088 920.30611597551 532.62870106088 920.33011597551 532.60770106088 920.35011597551 C 532.62870106088 920.33011597551 532.64770106088 920.30611597551 532.67070106088 920.28611597551 Z M 532.54370106088 920.42111597551 C 532.52770106088 920.44311597551 532.51570106088 920.46711597551 532.49970106088 920.48911597551 C 532.51470106088 920.46711597551 532.52770106088 920.44411597551 532.54370106088 920.42111597551 Z M 532.44370106088 920.58311597551 C 532.43570106088 920.60011597551 532.42970106088 920.61611597551 532.42370106088 920.63211597551 C 532.42770106088 920.62211597551 532.42870106088 920.61111597551 532.43370106088 920.60011597551 C 532.43670106088 920.59511597551 532.44070106088 920.58911597551 532.44370106088 920.58311597551 Z M 532.36770106088 920.81411597551 C 532.36370106088 920.83411597551 532.35870106088 920.85311597551 532.35570106088 920.87311597551 C 532.35870106088 920.85311597551 532.36370106088 920.83311597551 532.36770106088 920.81411597551 Z M 524.49170106088 911.48411597551 C 524.48270106088 911.48111597551 524.47270106088 911.47811597551 524.46370106088 911.48011597551 C 524.47270106088 911.47811597551 524.48270106088 911.48011597551 524.49170106088 911.48411597551 Z M 524.41870106088 911.49111597551 C 524.42370106088 911.48711597551 524.42970106088 911.48911597551 524.43570106088 911.48711597551 C 524.42170106088 911.49211597551 524.40870106088 911.49911597551 524.40070106088 911.51111597551 C 524.40370106088 911.50411597551 524.41070106088 911.49711597551 524.41870106088 911.49111597551 Z M 533.47070106088 920.07111597551 C 533.54470106088 920.08711597551 533.61970106088 920.10611597551 533.69270106088 920.14111597551 C 533.62170106088 920.10711597551 533.54570106088 920.08611597551 533.47070106088 920.07111597551 Z"/><path fill="#fea116" transform="matrix(0.625560674346469 0 0 0.625560674346469 23.38461397315399 25.30913419031598)" d="M 599.72870106088 921.75711597551 L 596.76070106088 920.11111597551 C 596.39570106088 919.90511597551 596.07370106088 919.96011597551 595.80070106088 920.27811597551 L 591.03470106088 925.83011597551 C 582.49070106088 935.70311597551 573.37670106088 945.00811597551 563.69070106088 953.74311597551 C 563.08970106088 954.28211597551 563.17870106088 954.65811597551 563.95870106088 954.87111597551 C 564.43970106088 955.00511597551 564.85470106088 955.23311597551 565.20070106088 955.55711597551 C 565.81870106088 956.13611597551 566.76970106088 956.16311597551 567.41670106088 955.62111597551 C 576.99570106088 947.62111597551 585.85270106088 938.94711597551 593.98770106088 929.60011597551 L 599.87870106088 922.61111597551 C 600.17370106088 922.26311597551 600.12270106088 921.97911597551 599.72870106088 921.75711597551 Z"/><path id="text" fill="#333333" transform="matrix(1.2293184701546913 0 0 1.2293184701546913 345.82863229323294 100.49417269495216)" d="M 131.87266548255 333.60655441753 C 129.31016548255 339.29405441753 125.71641548255 343.77842941753 121.09141548255 347.05967941753 L 135.62266548255 362.71592941753 L 133.93516548255 365.80967941753 C 131.93516548255 365.80967941753 129.45860298255 365.17686691753 126.50547798255 363.91124191753 C 123.55235298255 362.64561691753 120.52891548255 360.94249191753 117.43516548255 358.80186691753 C 114.34141548255 356.66124191753 111.59141548255 354.35655441753 109.18516548255 351.88780441753 C 107.56016548255 352.16905441753 105.84141548255 352.30967941753 104.02891548255 352.30967941753 C 98.59141548255 352.30967941753 93.66954048255 351.06749191753 89.26329048255 348.58311691753 C 84.85704048255 346.09874191753 81.38829048255 342.52842941753 78.85704048255 337.87217941753 C 76.32579048255 333.21592941753 75.06016548255 327.74717941753 75.06016548255 321.46592941753 C 75.06016548255 314.77842941753 76.30235298255 308.59092941753 78.78672798255 302.90342941753 C 81.27110298255 297.21592941753 84.95079048255 292.66905441753 89.82579048255 289.26280441753 C 94.70079048255 285.85655441753 100.54454048255 284.15342941753 107.35704048255 284.15342941753 C 112.51329048255 284.15342941753 117.24766548255 285.39561691753 121.56016548255 287.87999191753 C 125.87266548255 290.36436691753 129.31016548255 293.94249191753 131.87266548255 298.61436691753 C 134.43516548255 303.28624191753 135.71641548255 308.73155441753 135.71641548255 314.95030441753 C 135.71641548255 321.70030441753 134.43516548255 327.91905441753 131.87266548255 333.60655441753 Z M 99.71641548255 342.81749191753 C 102.40391548255 344.17686691753 105.26329048255 344.85655441753 108.29454048255 344.85655441753 C 110.23204048255 344.85655441753 112.09922798255 344.55967941753 113.89610298255 343.96592941753 C 115.69297798255 343.37217941753 117.15391548255 342.43467941753 118.27891548255 341.15342941753 C 119.74766548255 339.43467941753 120.88829048255 336.62217941753 121.70079048255 332.71592941753 C 122.51329048255 328.80967941753 122.91954048255 325.15342941753 122.91954048255 321.74717941753 C 122.91954048255 317.74717941753 122.77110298255 314.44249191753 122.47422798255 311.83311691753 C 122.17735298255 309.22374191753 121.59141548255 306.79405441753 120.71641548255 304.54405441753 C 119.71641548255 301.98155441753 118.28672798255 299.72374191753 116.42735298255 297.77061691753 C 114.56797798255 295.81749191753 112.43516548255 294.30186691753 110.02891548255 293.22374191753 C 107.62266548255 292.14561691753 105.15391548255 291.60655441753 102.62266548255 291.60655441753 C 100.81016548255 291.60655441753 99.03672798255 291.85655441753 97.30235298255 292.35655441753 C 95.56797798255 292.85655441753 94.12266548255 293.66905441753 92.96641548255 294.79405441753 C 91.81016548255 295.95030441753 90.84922798255 297.69249191753 90.08360298255 300.02061691753 C 89.31797798255 302.34874191753 88.75547798255 304.84092941753 88.39610298255 307.49717941753 C 88.03672798255 310.15342941753 87.85704048255 312.57530441753 87.85704048255 314.76280441753 C 87.85704048255 319.63780441753 88.20860298255 323.91905441753 88.91172798255 327.60655441753 C 89.61485298255 331.29405441753 90.98204048255 334.49717941753 93.01329048255 337.21592941753 C 94.79454048255 339.59092941753 97.02891548255 341.45811691753 99.71641548255 342.81749191753 Z M 151.60704048255 343.68467941753 L 151.60704048255 292.73155441753 L 142.84141548255 289.63780441753 L 143.63829048255 285.79405441753 L 166.37266548255 285.79405441753 C 171.21641548255 285.79405441753 175.48985298255 286.09092941753 179.19297798255 286.68467941753 C 182.89610298255 287.27842941753 186.18516548255 288.52842941753 189.06016548255 290.43467941753 C 191.12266548255 291.80967941753 192.74766548255 293.59092941753 193.93516548255 295.77842941753 C 195.12266548255 297.96592941753 195.71641548255 300.38780441753 195.71641548255 303.04405441753 C 195.71641548255 307.01280441753 194.56016548255 310.34092941753 192.24766548255 313.02842941753 C 189.93516548255 315.71592941753 186.54454048255 317.74717941753 182.07579048255 319.12217941753 L 195.76329048255 343.30967941753 L 204.62266548255 346.91905441753 L 203.73204048255 350.66905441753 L 183.57579048255 350.66905441753 L 184.37266548255 346.87217941753 L 169.70079048255 318.55967941753 C 173.29454048255 317.18467941753 176.07579048255 315.66124191753 178.04454048255 313.98936691753 C 180.01329048255 312.31749191753 181.35704048255 310.58311691753 182.07579048255 308.78624191753 C 182.79454048255 306.98936691753 183.15391548255 304.98155441753 183.15391548255 302.76280441753 C 183.15391548255 299.85655441753 182.19297798255 297.44249191753 180.27110298255 295.52061691753 C 178.34922798255 293.59874191753 175.91954048255 292.16124191753 172.98204048255 291.20811691753 C 170.04454048255 290.25499191753 166.96641548255 289.70030441753 163.74766548255 289.54405441753 L 163.74766548255 343.12217941753 L 173.21641548255 346.21592941753 L 172.13829048255 350.66905441753 L 142.51329048255 350.66905441753 L 143.21641548255 346.73155441753 L 151.60704048255 343.68467941753 Z M 216.15391548255 343.63780441753 L 216.15391548255 292.73155441753 L 207.34141548255 289.63780441753 L 208.13829048255 285.79405441753 L 237.52891548255 285.79405441753 L 236.77891548255 289.73155441753 L 228.29454048255 292.82530441753 L 228.29454048255 343.63780441753 L 237.29454048255 346.77842941753 L 236.40391548255 350.66905441753 L 207.01329048255 350.66905441753 L 207.81016548255 346.63780441753 L 216.15391548255 343.63780441753 Z M 274.13829048255 290.08311691753 C 273.60704048255 290.09874191753 273.21641548255 290.10655441753 272.96641548255 290.10655441753 C 269.43516548255 290.23155441753 266.34922798255 290.81749191753 263.70860298255 291.86436691753 C 261.06797798255 292.91124191753 259.31016548255 294.10655441753 258.43516548255 295.45030441753 C 258.15391548255 295.95030441753 257.92735298255 296.59092941753 257.75547798255 297.37217941753 C 257.58360298255 298.15342941753 257.49766548255 298.93467941753 257.49766548255 299.71592941753 C 257.49766548255 301.55967941753 258.01329048255 303.15342941753 259.04454048255 304.49717941753 C 260.07579048255 305.84092941753 261.58360298255 307.09092941753 263.56797798255 308.24717941753 C 265.55235298255 309.40342941753 268.41954048255 310.80967941753 272.16954048255 312.46592941753 C 275.63829048255 313.99717941753 278.51329048255 315.52061691753 280.79454048255 317.03624191753 C 283.07579048255 318.55186691753 284.92735298255 320.46592941753 286.34922798255 322.77842941753 C 287.77110298255 325.09092941753 288.48204048255 327.93467941753 288.48204048255 331.30967941753 C 288.48204048255 335.49717941753 287.41172798255 339.17686691753 285.27110298255 342.34874191753 C 283.13047798255 345.52061691753 280.12266548255 347.97374191753 276.24766548255 349.70811691753 C 272.37266548255 351.44249191753 267.88829048255 352.30967941753 262.79454048255 352.30967941753 C 258.91954048255 352.30967941753 255.23985298255 351.77061691753 251.75547798255 350.69249191753 C 248.27110298255 349.61436691753 245.45079048255 348.29405441753 243.29454048255 346.73155441753 L 246.95079048255 331.21592941753 L 252.57579048255 332.52842941753 L 253.70079048255 345.27842941753 L 255.66954048255 345.32530441753 C 256.29454048255 345.32530441753 257.26329048255 345.29405441753 258.57579048255 345.23155441753 C 261.82579048255 345.07530441753 264.88829048255 344.59092941753 267.76329048255 343.77842941753 C 270.63829048255 342.96592941753 272.68516548255 341.82530441753 273.90391548255 340.35655441753 C 274.52891548255 339.63780441753 274.99766548255 338.76280441753 275.31016548255 337.73155441753 C 275.62266548255 336.70030441753 275.77891548255 335.60655441753 275.77891548255 334.45030441753 C 275.77891548255 332.51280441753 275.31797798255 330.87999191753 274.39610298255 329.55186691753 C 273.47422798255 328.22374191753 272.20860298255 327.06749191753 270.59922798255 326.08311691753 C 268.98985298255 325.09874191753 266.56016548255 323.80967941753 263.31016548255 322.21592941753 C 263.18516548255 322.15342941753 262.82579048255 321.98155441753 262.23204048255 321.70030441753 C 258.66954048255 320.04405441753 255.76329048255 318.42686691753 253.51329048255 316.84874191753 C 251.26329048255 315.27061691753 249.45079048255 313.28624191753 248.07579048255 310.89561691753 C 246.70079048255 308.50499191753 246.01329048255 305.57530441753 246.01329048255 302.10655441753 C 246.01329048255 298.48155441753 247.06016548255 295.30967941753 249.15391548255 292.59092941753 C 251.24766548255 289.87217941753 254.10704048255 287.78624191753 257.73204048255 286.33311691753 C 261.35704048255 284.87999191753 265.41954048255 284.15342941753 269.91954048255 284.15342941753 C 272.82579048255 284.15342941753 276.24766548255 284.60655441753 280.18516548255 285.51280441753 L 285.20079048255 285.32530441753 L 286.84141548255 302.34092941753 L 281.54454048255 303.51280441753 L 275.49766548255 290.10655441753 C 275.12266548255 290.07530441753 274.66954048255 290.06749191753 274.13829048255 290.08311691753 Z M 304.56016548255 343.68467941753 L 304.56016548255 292.73155441753 L 295.74766548255 289.63780441753 L 296.54454048255 285.79405441753 L 317.82579048255 285.79405441753 C 321.54454048255 285.79405441753 324.65391548255 285.87217941753 327.15391548255 286.02842941753 C 329.65391548255 286.18467941753 332.14610298255 286.58311691753 334.63047798255 287.22374191753 C 337.11485298255 287.86436691753 339.32579048255 288.85655441753 341.26329048255 290.20030441753 C 343.41954048255 291.70030441753 345.11485298255 293.70811691753 346.34922798255 296.22374191753 C 347.58360298255 298.73936691753 348.20079048255 301.65342941753 348.20079048255 304.96592941753 C 348.20079048255 307.93467941753 347.57579048255 310.61436691753 346.32579048255 313.00499191753 C 345.07579048255 315.39561691753 343.32579048255 317.38780441753 341.07579048255 318.98155441753 C 338.70079048255 320.66905441753 335.83360298255 321.89561691753 332.47422798255 322.66124191753 C 329.11485298255 323.42686691753 325.81016548255 323.80967941753 322.56016548255 323.80967941753 L 323.12266548255 320.71592941753 C 326.43516548255 319.15342941753 328.95860298255 317.72374191753 330.69297798255 316.42686691753 C 332.42735298255 315.12999191753 333.70079048255 313.57530441753 334.51329048255 311.76280441753 C 335.32579048255 309.95030441753 335.73204048255 307.57530441753 335.73204048255 304.63780441753 C 335.73204048255 299.41905441753 333.97422798255 295.62217941753 330.45860298255 293.24717941753 C 326.94297798255 290.87217941753 322.37266548255 289.65342941753 316.74766548255 289.59092941753 L 316.74766548255 343.73155441753 L 328.04454048255 346.82530441753 L 327.29454048255 350.66905441753 L 295.37266548255 350.66905441753 L 296.21641548255 346.68467941753 L 304.56016548255 343.68467941753 Z M 373.98204048255 343.77842941753 L 373.98204048255 324.51280441753 L 355.09141548255 292.54405441753 L 348.76329048255 290.20030441753 L 349.56016548255 285.79405441753 L 376.37266548255 285.79405441753 L 375.57579048255 289.91905441753 L 368.26329048255 292.68467941753 L 383.21641548255 318.74717941753 C 384.46641548255 315.46592941753 386.00547798255 311.84874191753 387.83360298255 307.89561691753 C 389.66172798255 303.94249191753 391.85704048255 299.37217941753 394.41954048255 294.18467941753 L 395.12266548255 292.77842941753 L 386.54454048255 289.63780441753 L 387.34141548255 285.79405441753 L 410.12266548255 285.79405441753 L 409.41954048255 290.24717941753 L 403.09141548255 292.54405441753 L 385.98204048255 324.41905441753 L 385.98204048255 343.77842941753 L 395.40391548255 346.82530441753 L 394.65391548255 350.66905441753 L 365.12266548255 350.66905441753 L 365.82579048255 346.77842941753 L 373.98204048255 343.77842941753 Z"/></svg>